<?xml version="1.0" encoding="iso-8859-1"?>
<!-- Uploaded to: SVG Repo, www.svgrepo.com, Generator: SVG Repo Mixer Tools -->
<svg xmlns="http://www.w3.org/2000/svg" xmlns:xlink="http://www.w3.org/1999/xlink" version="1.1" id="Capa_1"  viewBox="0 0 458.5 458.5" xml:space="preserve" width="512" height="512">
<g>
	<path style="fill:#AF9CE6;" d="M231,80.5c84.22,0,152.5,68.28,152.5,152.5S315.22,385.5,231,385.5S78.5,317.22,78.5,233   S146.78,80.5,231,80.5z"/>
	<path style="fill:#DDE1ED;" d="M231,120.5c62.13,0,112.5,50.37,112.5,112.5S293.13,345.5,231,345.5c51.08,0,92.5-50.37,92.5-112.5   S282.08,120.5,231,120.5z"/>
	<path style="fill:#FFFFFF;" d="M231,120.5c51.08,0,92.5,50.37,92.5,112.5S282.08,345.5,231,345.5c-62.13,0-112.5-50.37-112.5-112.5   S168.87,120.5,231,120.5z"/>
	<path style="fill:#FF6288;" d="M262.49,177.4c-1.85,0-3.67,0.14-5.45,0.42l-26.03,122.7c1.04-0.56,67.49-37.06,67.49-87.11   C298.5,193.52,282.38,177.4,262.49,177.4z"/>
	<polygon style="fill:#DDE1ED;" points="458.5,240.5 458.5,270.5 443.5,290.5 428.5,270.5 428.5,218  "/>
	<path style="fill:#8779B3;" d="M458.5,270.5v100c0,8.28-6.72,15-15,15s-15-6.72-15-15v-100H458.5z"/>
	<path style="fill:#FF849B;" d="M257.04,177.82c12.16,2.65,21.46,17.57,21.46,35.59c0,49.97-46.61,86.43-47.49,87.11   c-0.01,0.01-67.51-36.67-67.51-87.11c0-19.89,16.12-36.01,36.01-36.01c13.56,0,25.35,7.51,31.49,18.58   C236.3,186.42,245.81,179.52,257.04,177.82z"/>
	<path style="fill:#8779B3;" d="M67,80.5v53l-15,20v-73c0-4.14,3.36-7.5,7.5-7.5S67,76.36,67,80.5z"/>
	<path style="fill:#8779B3;" d="M41,80.5v73H26v-73c0-4.14,3.36-7.5,7.5-7.5S41,76.36,41,80.5z"/>
	<path style="fill:#8779B3;" d="M15,80.5v73l-15-20v-53C0,76.36,3.36,73,7.5,73S15,76.36,15,80.5z"/>
	<path style="fill:#AF9CE6;" d="M0,133.5v27c0,13.24,7.08,25.59,18.5,32.32V370.5c0,8.28,6.72,15,15,15s15-6.72,15-15V192.82   C59.92,186.09,67,173.74,67,160.5v-27H0z"/>
	<path style="fill:#AF9CE6;" d="M413.5,118.71V240.5h45V73C433.75,73,413.5,93.57,413.5,118.71z"/>
</g>















</svg>